<svg width="25" height="24" viewBox="0 0 25 24" fill="none" xmlns="http://www.w3.org/2000/svg">
<g clip-path="url(#clip0_138_168)">
<path d="M9.60317 22.0027C10.1547 22.0027 10.6018 21.5555 10.6018 21.004C10.6018 20.4524 10.1547 20.0053 9.60317 20.0053C9.05162 20.0053 8.60449 20.4524 8.60449 21.004C8.60449 21.5555 9.05162 22.0027 9.60317 22.0027Z" stroke="white" stroke-width="2" stroke-linecap="round" stroke-linejoin="round"/>
<path d="M20.5886 22.0027C21.1402 22.0027 21.5873 21.5555 21.5873 21.004C21.5873 20.4524 21.1402 20.0053 20.5886 20.0053C20.0371 20.0053 19.59 20.4524 19.59 21.004C19.59 21.5555 20.0371 22.0027 20.5886 22.0027Z" stroke="white" stroke-width="2" stroke-linecap="round" stroke-linejoin="round"/>
<path d="M1.61377 1.0304H5.60848L8.28494 14.4027C8.37626 14.8625 8.6264 15.2755 8.99155 15.5695C9.3567 15.8634 9.81361 16.0196 10.2823 16.0106H19.9894C20.4581 16.0196 20.915 15.8634 21.2802 15.5695C21.6454 15.2755 21.8955 14.8625 21.9868 14.4027L23.5847 6.02379H6.60716" stroke="white" stroke-width="2" stroke-linecap="round" stroke-linejoin="round"/>
</g>
<defs>
<clipPath id="clip0_138_168">
<rect width="23.9683" height="23.9683" fill="white" transform="translate(0.615112 0.031723)"/>
</clipPath>
</defs>
</svg>
